<svg width="192" height="37" viewBox="0 0 192 37" fill="none" xmlns="http://www.w3.org/2000/svg">
<path d="M22.99 1.15039H0V1.82039C1.15 1.82039 1.34 2.20039 1.34 3.26039V33.9804C1.34 35.0404 1.15 35.4204 0 35.4204V36.0904H9.5V35.4204C8.35 35.4204 8.16 35.0404 8.16 33.9804V21.0204H22.99C31.34 21.0204 34.41 17.1804 34.41 11.0804C34.41 4.98039 30.58 1.15039 22.99 1.15039ZM22.89 15.3604H8.15V6.82039H22.89C26.54 6.82039 27.59 7.97039 27.59 11.0904C27.59 14.2104 26.53 15.3604 22.89 15.3604Z" fill="#00160A"/>
<path d="M69.8391 1.14961H39.7891V1.81961C40.9391 1.81961 41.1291 2.19961 41.1291 3.25961V33.9796C41.1291 35.0396 40.9391 35.4196 39.7891 35.4196V36.0896H49.1991V35.4196C48.1391 35.4196 47.9491 35.0396 47.9491 33.9796V21.0196H62.0591C62.6391 21.0196 63.0691 21.1196 63.3091 21.3096C63.5991 21.4996 63.6891 21.7896 63.6891 22.1696H64.3591V14.1096H63.6891C63.6891 14.9696 63.2091 15.3596 62.0591 15.3596H47.9491V6.81961H69.8391C70.9891 6.81961 71.4691 7.19961 71.4691 8.06961H72.1391V0.0996094H71.4691C71.4691 0.769609 70.9891 1.15961 69.8391 1.15961V1.14961Z" fill="#00160A"/>
<path d="M148.781 1.15H118.831C117.681 1.15 117.201 0.77 117.201 0H116.531V8.02H117.201C117.201 7.2 117.681 6.82 118.831 6.82H130.401V33.99C130.401 35.05 130.211 35.43 128.961 35.43V36.1H138.701V35.43C137.451 35.43 137.211 35.05 137.211 33.99V6.82H148.781C149.931 6.82 150.411 7.2 150.411 8.02H151.081V0H150.411C150.411 0.77 149.931 1.15 148.781 1.15Z" fill="#00160A"/>
<path d="M107.562 1.14961H77.5117V1.81961C78.6617 1.81961 78.8517 2.19961 78.8517 3.25961V33.9796C78.8517 35.0396 78.6617 35.4196 77.5117 35.4196V36.0896H86.9217V35.4196C85.8617 35.4196 85.6717 35.0396 85.6717 33.9796V21.0196H99.7817C100.362 21.0196 100.792 21.1196 101.032 21.3096C101.322 21.4996 101.412 21.7896 101.412 22.1696H102.082V14.1096H101.412C101.412 14.9696 100.932 15.3596 99.7817 15.3596H85.6717V6.81961H107.562C108.712 6.81961 109.192 7.19961 109.192 8.06961H109.862V0.0996094H109.192C109.192 0.769609 108.712 1.15961 107.562 1.15961V1.14961Z" fill="#00160A"/>
<path d="M146.958 31.55C146.238 31.57 145.628 31.82 145.128 32.32C144.648 32.8 144.398 33.4 144.398 34.1C144.398 34.8 144.648 35.39 145.148 35.9C145.648 36.4 146.248 36.65 146.948 36.65C147.648 36.65 148.228 36.4 148.728 35.9C149.248 35.4 149.498 34.81 149.498 34.12C149.498 33.43 149.248 32.79 148.748 32.29C148.268 31.79 147.658 31.54 146.948 31.54L146.958 31.55Z" fill="#00160A"/>
<path d="M190.699 10.5904C190.869 10.3704 191.199 10.1904 191.699 10.0604V9.44043H186.129V10.0604C186.619 10.1804 186.959 10.3504 187.129 10.5904C187.299 10.8104 187.379 11.2004 187.379 11.7404V33.7904C187.379 34.3404 187.289 34.7204 187.129 34.9404C186.969 35.1604 186.639 35.3404 186.129 35.4704V36.0904H191.699V35.4704C191.189 35.3404 190.849 35.1604 190.679 34.9404C190.519 34.7204 190.449 34.3304 190.449 33.7904V11.7404C190.449 11.1904 190.539 10.8104 190.699 10.5904Z" fill="#00160A"/>
<path d="M180.538 32.1704L171.178 11.8604C170.948 11.3504 170.828 11.0304 170.828 10.8804C170.828 10.5404 171.148 10.2704 171.788 10.0604V9.44043H165.308V10.0604C165.948 10.2304 166.268 10.4804 166.268 10.8204C166.268 11.0004 166.148 11.3504 165.918 11.8604L156.148 32.9304C155.688 33.9304 155.318 34.5804 155.038 34.8804C154.768 35.1804 154.358 35.3704 153.828 35.4704V36.0904H159.768V35.4704C158.998 35.3404 158.618 35.0804 158.618 34.6904C158.618 34.4904 158.728 34.1604 158.948 33.6704L161.288 28.6104H175.568L177.738 33.4004C178.028 34.0004 178.168 34.4004 178.168 34.6104C178.168 35.0804 177.788 35.3704 177.038 35.4704V36.0904H183.368V35.4704C182.628 35.2904 182.148 35.0704 181.918 34.8104C181.698 34.5504 181.238 33.6704 180.548 32.1704H180.538ZM162.428 26.0804L168.408 12.9204L174.408 26.0804H162.438H162.428Z" fill="#00160A"/>
</svg>
