<svg width="646" height="475" viewBox="0 0 646 475" fill="none" xmlns="http://www.w3.org/2000/svg">
<g clip-path="url(#clip0_168_987)">
<path opacity="0.1" d="M6.95312 227.732C17.1539 267.03 38.7299 301.001 72.8263 317.468C143.709 351.691 303.567 334.041 422.876 313.78C484.591 303.302 538.836 274.383 578.242 233.686L6.95312 227.732Z" fill="#F97D7D" fill-opacity="0.96"/>
<path opacity="0.1" d="M632.598 42.7522H567.136C564.03 42.7522 561.481 40.4575 561.481 37.6534C561.481 34.8493 564.03 32.5487 567.136 32.5487H578.459C575.346 32.5487 572.803 30.2539 572.803 27.444C572.803 24.6341 575.346 22.3452 578.459 22.3452H570.378C567.266 22.3452 564.717 20.0504 564.717 17.2405C564.717 14.4305 567.266 12.1416 570.378 12.1416H604.545C596.963 8.9629 588.102 6.70326 577.889 5.51489C484.72 -5.27404 451.457 1.86199 439.724 9.19706C425.099 18.4537 408.853 24.8766 391.839 28.1289C334.357 38.8242 226.859 51.6913 129.427 24.0311C81.0009 10.2566 45.0076 33.5029 23.4375 72.3618H643.968C643.157 61.0694 640.732 50.6376 636.281 41.5112C635.226 42.3226 633.93 42.7594 632.598 42.7522Z" fill="#FF7058"/>
<path opacity="0.1" d="M1.40489 145.706C-1.1095 168.561 -0.254784 191.66 3.94186 214.268L578.683 233.229C594.505 216.872 607.947 198.385 618.617 178.307L1.40489 145.706ZM228.722 194.616H217.406C220.518 194.616 223.067 196.917 223.067 199.721C223.067 202.525 220.518 204.82 217.406 204.82H151.944C148.837 204.82 146.288 202.525 146.288 199.721C146.288 196.917 148.837 194.616 151.944 194.616H163.266C160.154 194.616 157.611 192.322 157.611 189.517C157.611 186.713 160.154 184.413 163.266 184.413H155.179C152.067 184.413 149.518 182.118 149.518 179.314C149.518 176.51 152.067 174.209 155.179 174.209H220.642C223.754 174.209 226.297 176.504 226.297 179.314C226.297 182.124 223.754 184.413 220.642 184.413H228.722C231.835 184.413 234.378 186.708 234.378 189.517C234.378 192.327 231.835 194.616 228.722 194.616Z" fill="#FF914D"/>
<path opacity="0.1" d="M643.99 72.7129L16.5124 86.4698C8.878 104.166 3.8158 124.175 1.48438 144.91H632.996C637.106 132.779 640.156 120.316 642.111 107.661C643.996 95.4791 644.748 83.695 643.99 72.7129ZM128.885 117.818H117.568C120.681 117.818 123.23 120.119 123.23 122.923C123.23 125.727 120.681 128.027 117.568 128.027H52.1063C48.9997 128.027 46.451 125.727 46.451 122.923C46.451 120.119 48.9997 117.818 52.1063 117.818H63.4288C60.3163 117.818 57.7734 115.523 57.7734 112.719C57.7734 109.915 60.3163 107.614 63.4288 107.614H55.3422C52.2297 107.614 49.681 105.32 49.681 102.516C49.681 99.7116 52.2297 97.4109 55.3422 97.4109H120.804C123.917 97.4109 126.46 99.7057 126.46 102.516C126.46 105.326 123.917 107.614 120.804 107.614H128.885C131.997 107.614 134.54 109.915 134.54 112.719C134.54 115.523 131.997 117.818 128.885 117.818Z" fill="#FF6F56"/>
<path opacity="0.1" d="M320.104 457.245C465.075 457.245 582.598 446.468 582.598 433.173C582.598 419.879 465.075 409.102 320.104 409.102C175.132 409.102 57.6094 419.879 57.6094 433.173C57.6094 446.468 175.132 457.245 320.104 457.245Z" fill="#FF6F56"/>
<g opacity="0.1">
<path opacity="0.1" d="M496.078 166.348C496.199 166.119 496.305 165.882 496.395 165.639C497.059 163.801 496.765 161.782 496.771 159.826C496.771 159.174 496.832 158.524 496.953 157.883C496.411 159.039 496.148 160.306 496.184 161.583C496.178 163.157 496.366 164.808 496.078 166.348Z" fill="#44576D"/>
<path opacity="0.1" d="M568.474 254.761C566.037 256.57 562.425 256.096 559.965 254.31C557.504 252.525 556.007 249.72 554.967 246.87C553.669 243.416 552.706 239.517 549.746 237.298C548.683 236.502 547.397 235.981 546.358 235.185C544.009 233.394 542.834 230.437 541.989 227.604C540.902 224.033 540.045 220.363 538.465 216.991C536.885 213.619 534.407 210.481 530.989 208.941C527.794 207.507 524.106 207.601 520.8 206.436C515.104 204.434 510.893 199.663 505.238 197.415C503.427 196.654 501.711 195.688 500.123 194.535C497.339 192.621 496.599 191.538 496.188 188.16C495.601 183.09 490.433 178.67 491.237 173.894C491.106 174.152 490.991 174.418 490.891 174.69C489.129 179.841 495.002 184.507 495.589 189.91C495.971 193.288 496.764 194.371 499.524 196.285C501.112 197.438 502.828 198.405 504.639 199.165C510.294 201.413 514.505 206.19 520.201 208.186C523.507 209.357 527.195 209.258 530.39 210.692C533.808 212.231 536.263 215.375 537.866 218.741C539.469 222.107 540.327 225.766 541.39 229.354C542.253 232.188 543.386 235.144 545.759 236.935C546.822 237.731 548.108 238.253 549.147 239.049C552.084 241.267 553.07 245.166 554.368 248.62C555.437 251.459 556.934 254.269 559.395 256.049C561.856 257.828 565.467 258.308 567.904 256.499C569.461 255.329 570.254 253.543 570.776 251.629C570.312 252.864 569.515 253.947 568.474 254.761Z" fill="#44576D"/>
<path opacity="0.1" d="M580.541 237.205C580.316 237.625 580.218 238.101 580.259 238.575C581.586 237.269 584.581 238.036 585.627 236.356C585.869 235.941 585.965 235.456 585.897 234.98C584.534 236.268 581.539 235.501 580.541 237.205Z" fill="#44576D"/>
<path opacity="0.1" d="M571.915 247.215C571.803 247.8 571.692 248.426 571.551 249.035C575.145 250.153 579.297 247.279 579.884 243.649C578.457 246.442 574.933 248.309 571.915 247.215Z" fill="#44576D"/>
</g>
<path d="M474.066 220.157L471.911 222.792C471.911 222.792 472.11 234.107 470.442 236.841C468.775 239.575 475.047 255.574 477.396 254.596C479.745 253.619 485.03 228.646 485.03 228.353C485.03 228.06 474.066 220.157 474.066 220.157Z" fill="#575A89"/>
<path d="M473.875 236.256C473.875 236.256 467.022 243.181 467.509 246.5C467.997 249.82 474.556 260.246 483.953 254.643C483.953 254.643 492.668 238.305 473.875 236.256Z" fill="#575A89"/>
<path opacity="0.1" d="M501.931 443.705C500.222 443.769 490.509 443.705 490.509 443.705C490.367 443.556 490.233 443.4 490.109 443.236C492.593 442.393 497.961 441.129 501.931 443.705Z" fill="#44576D"/>
<path opacity="0.1" d="M529.716 443.705C528.007 443.769 518.294 443.705 518.294 443.705C518.152 443.556 518.018 443.4 517.895 443.236C520.367 442.393 525.734 441.129 529.716 443.705Z" fill="#44576D"/>
<path opacity="0.1" d="M494.129 263.98C494.088 264.185 493.377 267.3 492.297 272.106C492.72 268.002 493.307 265.058 494.129 263.98Z" fill="#44576D"/>
<path opacity="0.1" d="M485.517 207.179C485.517 207.179 486.204 212.646 483.855 214.01C481.506 215.374 485.517 207.179 485.517 207.179Z" fill="#44576D"/>
<path opacity="0.1" d="M535.336 249.527C535.336 249.527 540.915 241.331 541.702 243.673C542.489 246.014 535.336 249.527 535.336 249.527Z" fill="#44576D"/>
<path opacity="0.1" d="M535.73 252.255C535.73 252.255 541.233 245.523 541.762 248.157C542.29 250.792 535.73 252.255 535.73 252.255Z" fill="#44576D"/>
<path opacity="0.1" d="M517.824 205.792C517.824 205.792 526.087 206.319 526.14 207.49C526.193 208.661 517.824 205.792 517.824 205.792Z" fill="#44576D"/>
<path opacity="0.1" d="M497.754 200.798C497.754 200.798 489.491 201.325 489.438 202.495C489.385 203.666 497.754 200.798 497.754 200.798Z" fill="#44576D"/>
<path opacity="0.1" d="M529.329 224.735C529.247 224.677 529.165 224.63 529.083 224.577C531.197 226.474 530.844 230.618 528.249 234.037C525.653 237.456 521.712 238.878 519.316 237.345C519.393 237.409 519.457 237.479 519.54 237.544C521.889 239.335 525.999 237.93 528.713 234.394C531.426 230.858 531.69 226.532 529.329 224.735Z" fill="#44576D"/>
<path opacity="0.1" d="M483.938 233.599C481.847 229.84 482.117 225.69 484.484 224.115C484.396 224.156 484.302 224.191 484.214 224.238C481.618 225.678 481.277 229.993 483.427 233.88C485.576 237.767 489.452 239.734 492.048 238.317C492.133 238.268 492.216 238.213 492.294 238.153C489.704 239.324 486.028 237.357 483.938 233.599Z" fill="#44576D"/>
<path opacity="0.1" d="M486.733 201.905L485.975 203.076L484.043 202.051L485.059 200.494C485.731 200.811 486.308 201.297 486.733 201.905Z" fill="#44576D"/>
<path d="M474.46 245.231C474.46 245.231 476.18 237.164 473.872 234.6C471.564 232.036 472.304 218.595 475.828 218.888C479.351 219.18 484.637 229.811 483.756 232.059C482.875 234.307 479.545 245.816 479.545 245.816L474.46 245.231Z" fill="#FBBEBE"/>
<path d="M477.063 251.628C479.982 251.628 482.348 250.029 482.348 248.057C482.348 246.085 479.982 244.486 477.063 244.486C474.144 244.486 471.777 246.085 471.777 248.057C471.777 250.029 474.144 251.628 477.063 251.628Z" fill="#575A89"/>
<path d="M304.784 446.831C404.841 446.831 485.954 365.975 485.954 266.235C485.954 166.494 404.841 85.6387 304.784 85.6387C204.726 85.6387 123.613 166.494 123.613 266.235C123.613 365.975 204.726 446.831 304.784 446.831Z" fill="#FF593D" fill-opacity="0.86"/>
<path d="M399.843 356.989C399.843 385.498 354.882 359.425 306.68 359.425C258.477 359.425 209.723 384.421 209.723 355.912C209.723 339.656 225.262 317.048 247.554 300.627C264.35 288.252 284.974 279.389 305.693 279.389C326.999 279.389 347.87 288.983 364.519 302.155C385.531 318.763 399.843 341.078 399.843 356.989Z" fill="#44576D"/>
<path d="M364.514 302.143C338.892 298.297 292.551 293.608 247.555 300.615C264.35 288.24 284.975 279.377 305.694 279.377C326.994 279.377 347.865 288.972 364.514 302.143Z" fill="#F6F8FB"/>
<path opacity="0.05" d="M209.724 138.752C209.724 138.752 155.15 173.531 155.596 227.932C156.043 282.333 209.724 138.752 209.724 138.752Z" fill="#44576D"/>
<path d="M485.883 40.5277C485.883 40.5277 436.436 37.5597 442.267 72.0984C442.267 72.0984 441.093 78.1982 446.66 80.973C446.66 80.973 446.748 78.4148 451.728 79.2812C453.503 79.5772 455.306 79.6637 457.101 79.5388C459.527 79.3744 461.832 78.4247 463.667 76.8343C463.667 76.8343 477.567 71.1149 482.976 48.4657C482.976 48.4657 486.975 43.525 486.817 42.2605L478.472 45.808C478.472 45.808 481.32 51.8084 479.059 56.796C479.059 56.796 478.789 46.0305 477.186 46.2588C476.863 46.3115 472.852 48.337 472.852 48.337C472.852 48.337 477.755 58.7922 474.026 66.3849C474.026 66.3849 475.43 53.506 471.29 49.0921L465.417 52.5109C465.417 52.5109 471.149 63.3056 467.261 72.1159C467.261 72.1159 468.259 58.6049 464.184 53.3421L458.857 57.4809C458.857 57.4809 464.242 68.1235 460.96 75.4293C460.96 75.4293 460.531 59.6996 457.706 58.5112C457.706 58.5112 453.049 62.609 452.339 64.2891C452.339 64.2891 456.027 72.0106 453.742 76.0849C453.742 76.0849 452.339 65.6063 451.188 65.5477C451.188 65.5477 446.548 72.4906 446.061 77.2557C446.061 77.2557 446.266 70.1724 450.06 64.8862C450.06 64.8862 445.573 65.6531 442.96 68.5567C442.96 68.5567 443.682 63.6452 451.182 63.2178C451.182 63.2178 455.017 57.9492 456.044 57.6331C456.044 57.6331 448.557 57.0067 444.017 59.0147C444.017 59.0147 448.011 54.3841 457.413 56.4857L462.698 52.2123C462.698 52.2123 452.844 50.8659 448.662 52.3528C448.662 52.3528 453.472 48.255 464.113 51.2405L469.839 47.8277C469.839 47.8277 461.435 46.0246 456.426 46.6569C456.426 46.6569 461.711 43.8177 471.513 46.8969L475.624 45.0646C475.624 45.0646 469.463 43.8586 467.66 43.6713C465.857 43.484 465.763 42.9805 465.763 42.9805C469.676 42.3465 473.688 42.8107 477.35 44.3211C477.35 44.3211 486.03 41.0721 485.883 40.5277Z" fill="#F99B7D" fill-opacity="0.96"/>
<path d="M435.166 25.1727C435.166 25.1727 412.851 23.8263 415.458 39.4331C415.458 39.4331 414.935 42.1903 417.443 43.4431C417.443 43.4431 417.478 42.2723 419.733 42.682C420.535 42.8135 421.348 42.8528 422.159 42.7991C423.256 42.7211 424.298 42.292 425.13 41.5756C425.13 41.5756 431.408 38.9882 433.851 28.7554C433.851 28.7554 435.66 26.525 435.613 25.9513L431.843 27.5553C431.843 27.5553 433.135 30.2657 432.119 32.5195C432.119 32.5195 431.995 27.6548 431.273 27.7719C431.126 27.7719 429.311 28.7085 429.311 28.7085C429.311 28.7085 431.531 33.4327 429.858 36.8632C429.858 36.8632 430.492 31.0443 428.624 29.0481L425.97 30.5935C425.97 30.5935 428.56 35.4758 426.804 39.4565C426.804 39.4565 427.25 33.3508 425.412 30.974L423.004 32.8415C423.004 32.8415 425.436 37.6476 423.956 40.9493C423.956 40.9493 423.762 33.8425 422.482 33.3039C422.482 33.3039 420.379 35.1538 420.056 35.9148C420.056 35.9148 421.724 39.4272 420.69 41.2478C420.69 41.2478 420.056 36.5119 419.516 36.4944C419.516 36.4944 417.419 39.6263 417.202 41.763C417.303 39.7745 417.925 37.8471 419.005 36.1724C417.797 36.4003 416.682 36.9763 415.799 37.8291C415.799 37.8291 416.122 35.6104 419.522 35.4172C419.522 35.4172 421.254 33.0405 421.718 32.8941C421.718 32.8941 418.336 32.6132 416.286 33.5205C416.286 33.5205 418.089 31.4248 422.341 32.3497L424.69 30.4238C424.69 30.4238 420.238 29.8384 418.347 30.4823C418.347 30.4823 420.52 28.6324 425.33 29.9847L427.914 28.4392C427.914 28.4392 424.12 27.6255 421.853 27.9182C421.853 27.9182 424.243 26.6362 428.671 28.0295L430.521 27.1982C430.521 27.1982 427.738 26.6538 426.927 26.5718C426.117 26.4899 426.064 26.2616 426.064 26.2616C427.827 25.9692 429.637 26.1719 431.291 26.847C431.291 26.847 435.231 25.4186 435.166 25.1727Z" fill="#F99B7D" fill-opacity="0.96"/>
<path opacity="0.1" d="M630.186 427.349C638.92 427.349 646.001 426.156 646.001 424.685C646.001 423.214 638.92 422.021 630.186 422.021C621.452 422.021 614.371 423.214 614.371 424.685C614.371 426.156 621.452 427.349 630.186 427.349Z" fill="#F99B7D" fill-opacity="0.96"/>
<path opacity="0.1" d="M27.4673 471.657C36.2017 471.657 43.2823 470.465 43.2823 468.994C43.2823 467.523 36.2017 466.33 27.4673 466.33C18.7329 466.33 11.6523 467.523 11.6523 468.994C11.6523 470.465 18.7329 471.657 27.4673 471.657Z" fill="#F99B7D" fill-opacity="0.96"/>
<path opacity="0.1" d="M119.272 475C128.006 475 135.087 473.807 135.087 472.336C135.087 470.865 128.006 469.673 119.272 469.673C110.538 469.673 103.457 470.865 103.457 472.336C103.457 473.807 110.538 475 119.272 475Z" fill="#F99B7D" fill-opacity="0.96"/>
<path d="M595.571 457.21C608.612 457.21 619.185 455.427 619.185 453.229C619.185 451.03 608.612 449.248 595.571 449.248C582.529 449.248 571.957 451.03 571.957 453.229C571.957 455.427 582.529 457.21 595.571 457.21Z" fill="#F99B7D" fill-opacity="0.96"/>
<path d="M605.333 446.725C606.411 445.848 607.197 444.667 607.588 443.336C607.876 441.995 607.301 440.379 606.014 439.888C604.57 439.337 603.025 440.338 601.857 441.345C600.688 442.352 599.343 443.5 597.81 443.289C598.599 442.577 599.188 441.674 599.522 440.668C599.855 439.661 599.921 438.586 599.713 437.546C599.646 437.115 599.464 436.711 599.185 436.375C598.38 435.521 596.929 435.884 595.966 436.557C592.913 438.699 592.061 442.832 592.043 446.555C591.738 445.215 591.996 443.816 591.99 442.458C591.985 441.099 591.603 439.531 590.44 438.811C589.718 438.426 588.909 438.237 588.091 438.26C586.717 438.208 585.19 438.342 584.25 439.343C583.076 440.59 583.387 442.674 584.403 444.026C585.419 445.379 586.958 446.257 588.373 447.199C589.512 447.874 590.483 448.797 591.215 449.898C591.301 450.053 591.372 450.216 591.427 450.384H600.03C601.955 449.408 603.739 448.178 605.333 446.725Z" fill="#F99B7D" fill-opacity="0.96"/>
<path d="M34.8483 397.64C34.8483 397.64 38.0723 401.843 33.3566 408.177C28.6409 414.511 24.7532 419.885 26.3095 423.842C26.3095 423.842 33.4212 412.052 39.2292 411.882C45.0373 411.713 41.2142 404.729 34.8483 397.64Z" fill="#F99B7D" fill-opacity="0.96"/>
<path opacity="0.1" d="M34.8497 397.64C35.1297 398.046 35.3511 398.489 35.5074 398.957C41.1569 405.572 44.1637 411.748 38.7374 411.9C33.6752 412.046 27.5794 421.062 26.1523 423.339C26.2022 423.515 26.261 423.689 26.3285 423.86C26.3285 423.86 33.4403 412.07 39.2483 411.9C45.0563 411.73 41.2156 404.729 34.8497 397.64Z" fill="#44576D"/>
<path d="M40.8435 402.996C40.8435 404.477 40.6732 405.677 40.4676 405.677C40.2621 405.677 40.0977 404.506 40.0977 402.996C40.0977 401.486 40.3032 402.211 40.5146 402.211C40.726 402.211 40.8435 401.515 40.8435 402.996Z" fill="#FFD037"/>
<path d="M42.876 404.764C41.5723 405.472 40.4389 405.9 40.339 405.718C40.2392 405.537 41.2199 404.823 42.5236 404.114C43.8274 403.406 43.3106 403.921 43.4104 404.114C43.5102 404.307 44.2032 404.056 42.876 404.764Z" fill="#FFD037"/>
<path d="M17.8059 397.64C17.8059 397.64 14.5819 401.843 19.2917 408.177C24.0016 414.511 27.8951 419.885 26.3389 423.842C26.3389 423.842 19.2212 412.052 13.4191 411.882C7.61695 411.713 11.4342 404.729 17.8059 397.64Z" fill="#F99B7D" fill-opacity="0.96"/>
<path opacity="0.1" d="M17.8066 397.64C17.5241 398.044 17.3025 398.488 17.1489 398.957C11.4995 405.572 8.4868 411.748 13.919 411.9C18.9753 412.046 25.0769 421.062 26.4981 423.339C26.4502 423.515 26.3934 423.689 26.3278 423.86C26.3278 423.86 19.2102 412.07 13.4081 411.9C7.6059 411.73 11.4348 404.729 17.8066 397.64Z" fill="#44576D"/>
<path d="M11.8086 402.996C11.8086 404.477 11.973 405.677 12.1786 405.677C12.3841 405.677 12.5485 404.506 12.5485 402.996C12.5485 401.486 12.343 402.211 12.1375 402.211C11.9319 402.211 11.8086 401.515 11.8086 402.996Z" fill="#FFD037"/>
<path d="M9.74694 404.764C11.0507 405.472 12.19 405.9 12.2898 405.718C12.3896 405.537 11.4089 404.823 10.1052 404.114C8.80145 403.406 9.31237 403.921 9.21841 404.114C9.12445 404.307 8.44322 404.056 9.74694 404.764Z" fill="#FFD037"/>
<path d="M12.8359 423.309C12.8359 423.309 21.8563 423.034 24.5812 421.102C27.3061 419.17 38.4582 416.87 39.1335 419.931C39.8089 422.993 52.6876 435.327 42.5044 435.409C32.3213 435.491 18.8436 433.823 16.1305 432.178C13.4173 430.533 12.8359 423.309 12.8359 423.309Z" fill="#A8A8A8"/>
<path opacity="0.2" d="M42.6747 434.361C32.4916 434.443 19.0139 432.775 16.3008 431.13C14.2336 429.877 13.4115 425.376 13.1354 423.297H12.8359C12.8359 423.297 13.4232 430.551 16.1187 432.195C18.8143 433.84 32.3096 435.509 42.4927 435.427C45.429 435.427 46.445 434.356 46.3921 432.816C45.981 433.759 44.8652 434.344 42.6747 434.361Z" fill="#44576D"/>
<path d="M240.373 242.555C243.82 242.362 260.046 241.144 270.353 235.284C272.008 234.313 273.878 233.764 275.797 233.686C279.074 233.592 282.844 234.956 280.43 242.59C276.519 255.076 253.81 269.126 239.715 268.348C226.161 267.598 210.082 262.154 199.464 243.011C198.447 241.17 197.946 239.089 198.014 236.988C198.137 233.124 199.547 228.283 206.823 233.68C216.654 240.968 235.305 242.35 239.046 242.555C239.488 242.578 239.931 242.578 240.373 242.555Z" fill="#444053"/>
<path d="M370.744 242.555C374.191 242.362 390.417 241.144 400.724 235.284C402.379 234.313 404.249 233.764 406.168 233.686C409.445 233.592 413.215 234.956 410.801 242.59C406.89 255.076 384.181 269.126 370.086 268.348C356.532 267.598 340.453 262.154 329.836 243.011C328.818 241.17 328.317 239.089 328.385 236.988C328.508 233.124 329.918 228.283 337.194 233.68C347.025 240.968 365.676 242.35 369.417 242.555C369.859 242.578 370.302 242.578 370.744 242.555Z" fill="#444053"/>
</g>
<defs>
<clipPath id="clip0_168_987">
<rect width="646" height="475" fill="white"/>
</clipPath>
</defs>
</svg>
