<svg width="557" height="847" viewBox="0 0 557 847" fill="none" xmlns="http://www.w3.org/2000/svg">
<path d="M2 2C22.5811 2 56.4362 3.85016 75.3046 12.0059C93.9206 20.0526 115.507 25.6328 130.605 39.5223C143.666 51.5387 157.22 62.9052 170.043 75.3769C186.608 91.487 200.167 117.407 211.626 137.219C224.393 159.294 235.983 187.136 257.923 201.98C289.063 223.047 328.758 224.533 363.379 238.251C386.406 247.375 412.969 261.696 431.254 277.997C444.801 290.074 454.093 305.348 466.263 318.577C489.807 344.168 511.955 372.148 530.565 401.265C546.451 426.119 555 442.819 555 472.835C555 501.86 547.623 520.65 536.424 547.879C527.406 569.805 524.135 585.478 524.135 607.915C524.135 625.402 526.34 642.543 526.707 659.334C527.018 673.546 531.851 686.757 531.851 701.026C531.851 710.253 533.816 723 536.424 731.877C538.881 740.242 543.904 757.858 541.997 766.203C539.788 775.872 518.94 786.658 510.703 789.967C437.067 819.547 360.223 832.007 281.501 838.051C233.232 841.758 186.692 845 138.035 845C109.552 845 81.068 845 52.5845 845C35.6593 845 19.2412 842.499 2 842.499" stroke="#FFC1A3" stroke-width="3" stroke-linecap="round"/>
<path d="M196.389 540.592C193.993 537.402 190.607 534.45 190.392 530.513C190.196 526.902 192.816 523.317 191.711 519.862C190.861 517.206 188.059 515.603 185.32 514.755C180.076 513.153 174.465 513.375 169.357 515.386L169.634 515.185C166.517 514.044 162.872 515.222 160.42 517.404C157.966 519.587 156.509 522.612 155.378 525.643C154.246 528.674 153.37 531.816 151.798 534.658C150.226 537.5 147.82 540.084 144.645 541.066C145.707 543.245 149.03 543.993 150.979 542.492C151.477 542.076 151.925 541.601 152.312 541.075C153.612 539.451 154.912 537.827 156.212 536.202C157.549 538.647 155.551 542.021 157.195 544.284C158.043 545.451 159.591 545.894 161.029 546.212C172.267 548.677 183.926 548.232 194.956 544.919C195.842 544.651 196.82 544.281 197.188 543.456C197.613 542.504 197.019 541.431 196.389 540.592Z" fill="#2F2E41"/>
<path d="M228.251 553.043C228.181 553.36 228.135 553.682 228.114 554.007L203.55 568.57L197.58 565.038L191.215 573.601L201.193 580.91C201.999 581.501 202.97 581.807 203.96 581.782C204.949 581.757 205.905 581.403 206.682 580.773L232.011 560.237C233.155 560.672 234.399 560.738 235.58 560.428C236.761 560.118 237.823 559.446 238.623 558.501C239.423 557.556 239.924 556.384 240.06 555.139C240.196 553.894 239.96 552.636 239.383 551.532C238.806 550.429 237.916 549.532 236.831 548.961C235.746 548.39 234.518 548.172 233.309 548.336C232.101 548.5 230.97 549.038 230.066 549.879C229.163 550.72 228.53 551.823 228.251 553.043Z" fill="#FFB7B7"/>
<path d="M202.735 569.26L194.796 579.834C194.571 580.135 194.284 580.383 193.957 580.559C193.63 580.736 193.269 580.839 192.9 580.859C192.531 580.88 192.161 580.819 191.817 580.68C191.473 580.541 191.162 580.327 190.906 580.053L181.918 570.462C180.425 569.266 179.454 567.51 179.219 565.58C178.984 563.649 179.504 561.702 180.665 560.165C181.826 558.628 183.533 557.627 185.411 557.383C187.289 557.138 189.185 557.669 190.682 558.859L201.955 565.337C202.277 565.522 202.557 565.777 202.776 566.084C202.994 566.391 203.145 566.742 203.219 567.115C203.293 567.487 203.288 567.871 203.205 568.242C203.122 568.612 202.961 568.959 202.735 569.26Z" fill="#E86B34"/>
<path d="M191.806 753.506L198.816 753.506L202.151 725.716L191.805 725.717L191.806 753.506Z" fill="#FFB7B7"/>
<path d="M190.02 751.154L203.826 751.154H203.826C206.16 751.154 208.397 752.107 210.047 753.802C211.697 755.498 212.624 757.798 212.624 760.196V760.49L190.02 760.49L190.02 751.154Z" fill="#2F2E41"/>
<path d="M143.775 753.506L150.785 753.506L154.12 725.716L143.773 725.717L143.775 753.506Z" fill="#FFB7B7"/>
<path d="M141.984 751.154L155.79 751.154H155.791C158.124 751.154 160.362 752.107 162.012 753.802C163.662 755.498 164.589 757.798 164.589 760.196V760.49L141.985 760.49L141.984 751.154Z" fill="#2F2E41"/>
<path d="M187.596 536.664C188.326 529.828 183.526 523.678 176.875 522.928C170.224 522.178 164.24 527.111 163.51 533.946C162.779 540.782 167.579 546.932 174.231 547.682C180.882 548.432 186.866 543.499 187.596 536.664Z" fill="#FFB7B7"/>
<path d="M182.641 553.971L189.779 557.605C189.779 557.605 197.754 571.848 193.179 585.364C190.958 591.926 197.213 612.845 197.213 612.845C197.213 612.845 206.903 707.598 206.934 736.842C194.895 738.744 183.458 741.095 182.887 735.218C182.315 729.342 176.055 659.858 176.055 659.858C176.055 659.858 167.447 736.981 160.586 738.157C153.724 739.332 140 737.569 140 737.569C140 737.569 150.895 624.598 158.329 617.546L159.473 611.67L159.442 558.919L168.006 554.719L182.641 553.971Z" fill="#364455"/>
<path d="M157.108 634.052C157.897 633.613 158.584 633.001 159.119 632.26C159.654 631.518 160.024 630.665 160.203 629.761C160.383 628.857 160.367 627.923 160.157 627.026C159.948 626.128 159.549 625.289 158.989 624.567L167.29 567.704L156.445 567.168L149.975 623.797C148.857 624.843 148.151 626.274 147.992 627.819C147.832 629.365 148.229 630.916 149.109 632.18C149.988 633.444 151.288 634.333 152.762 634.678C154.236 635.023 155.782 634.8 157.108 634.052Z" fill="#FFB7B7"/>
<path d="M167.057 581.952L154.087 581.11C153.718 581.086 153.358 580.981 153.032 580.801C152.706 580.621 152.422 580.372 152.199 580.069C151.975 579.766 151.818 579.417 151.737 579.046C151.657 578.675 151.655 578.291 151.732 577.919L154.435 564.897C154.564 562.957 155.437 561.149 156.862 559.869C158.287 558.59 160.148 557.943 162.036 558.071C163.924 558.199 165.685 559.092 166.934 560.553C168.182 562.014 168.816 563.924 168.696 565.865L169.783 579.091C169.814 579.469 169.766 579.85 169.64 580.208C169.515 580.565 169.316 580.891 169.058 581.163C168.799 581.434 168.486 581.645 168.141 581.781C167.796 581.917 167.426 581.976 167.057 581.952Z" fill="#E86B34"/>
<path d="M525.517 528.03H238.695C236.602 528.03 234.594 528.885 233.113 530.407C231.633 531.928 230.801 533.992 230.801 536.144V700.383C230.801 702.535 231.633 704.598 233.113 706.12C234.594 707.642 236.602 708.496 238.695 708.496H525.517C527.611 708.496 529.619 707.642 531.099 706.12C532.58 704.598 533.412 702.535 533.412 700.383V536.144C533.412 533.992 532.58 531.928 531.099 530.407C529.619 528.885 527.611 528.03 525.517 528.03Z" fill="#F89B7C"/>
<path d="M522.829 542.369H241.387V705.53H522.829V542.369Z" fill="white"/>
<path d="M381.871 537.918C383.465 537.918 384.758 536.59 384.758 534.952C384.758 533.314 383.465 531.985 381.871 531.985C380.277 531.985 378.984 533.314 378.984 534.952C378.984 536.59 380.277 537.918 381.871 537.918Z" fill="white"/>
<path d="M442.341 705.53H241.387V542.369L442.341 705.53Z" fill="#F2F2F2"/>
<path d="M541.314 702.563H513.847V700.529C513.847 700.422 513.806 700.32 513.732 700.244C513.659 700.168 513.559 700.126 513.455 700.126H504.037C503.986 700.126 503.935 700.136 503.887 700.157C503.84 700.177 503.796 700.207 503.76 700.244C503.723 700.281 503.695 700.326 503.675 700.375C503.655 700.424 503.645 700.476 503.645 700.529V702.563H497.759V700.529C497.759 700.476 497.749 700.424 497.729 700.375C497.71 700.326 497.681 700.282 497.644 700.244C497.608 700.207 497.565 700.177 497.517 700.157C497.47 700.136 497.418 700.126 497.367 700.126H487.95C487.898 700.126 487.847 700.136 487.8 700.157C487.752 700.177 487.709 700.207 487.672 700.244C487.636 700.281 487.607 700.326 487.587 700.375C487.567 700.424 487.557 700.476 487.557 700.529V702.563H481.672V700.529C481.672 700.476 481.661 700.424 481.642 700.375C481.622 700.326 481.593 700.281 481.557 700.244C481.52 700.207 481.477 700.177 481.429 700.157C481.382 700.136 481.331 700.126 481.279 700.126H471.862C471.81 700.126 471.759 700.136 471.712 700.157C471.664 700.177 471.621 700.207 471.584 700.244C471.548 700.281 471.519 700.326 471.499 700.375C471.48 700.424 471.47 700.476 471.47 700.529V702.563H465.584V700.529C465.584 700.476 465.574 700.424 465.554 700.375C465.534 700.326 465.505 700.282 465.469 700.244C465.432 700.207 465.389 700.177 465.342 700.157C465.294 700.136 465.243 700.126 465.191 700.126H455.774C455.723 700.126 455.672 700.136 455.624 700.157C455.576 700.177 455.533 700.207 455.497 700.244C455.46 700.281 455.431 700.326 455.412 700.375C455.392 700.424 455.382 700.476 455.382 700.529V702.563H449.496V700.529C449.496 700.476 449.486 700.424 449.466 700.375C449.446 700.326 449.417 700.281 449.381 700.244C449.345 700.207 449.301 700.177 449.254 700.157C449.206 700.136 449.155 700.126 449.104 700.126H439.686C439.635 700.126 439.584 700.136 439.536 700.157C439.489 700.177 439.445 700.207 439.409 700.244C439.372 700.281 439.344 700.326 439.324 700.375C439.304 700.424 439.294 700.476 439.294 700.529V702.563H433.408V700.529C433.408 700.476 433.398 700.424 433.378 700.375C433.359 700.326 433.33 700.282 433.293 700.244C433.257 700.207 433.214 700.177 433.166 700.157C433.118 700.136 433.067 700.126 433.016 700.126H423.599C423.547 700.126 423.496 700.136 423.448 700.157C423.401 700.177 423.357 700.207 423.321 700.244C423.285 700.281 423.256 700.326 423.236 700.375C423.216 700.424 423.206 700.476 423.206 700.529V702.563H417.32V700.529C417.32 700.476 417.31 700.424 417.291 700.375C417.271 700.326 417.242 700.281 417.205 700.244C417.169 700.207 417.126 700.177 417.078 700.157C417.031 700.136 416.98 700.126 416.928 700.126H343.16C343.108 700.126 343.057 700.136 343.009 700.157C342.962 700.177 342.919 700.207 342.882 700.244C342.846 700.281 342.817 700.326 342.797 700.375C342.777 700.424 342.767 700.476 342.767 700.529V702.563H336.881V700.529C336.881 700.476 336.871 700.424 336.852 700.375C336.832 700.326 336.803 700.281 336.766 700.244C336.73 700.207 336.687 700.177 336.639 700.157C336.592 700.136 336.541 700.126 336.489 700.126H327.072C327.02 700.126 326.969 700.136 326.922 700.157C326.874 700.177 326.831 700.207 326.794 700.244C326.758 700.281 326.729 700.326 326.709 700.375C326.69 700.424 326.679 700.476 326.679 700.529V702.563H320.794V700.529C320.794 700.476 320.783 700.424 320.764 700.375C320.744 700.326 320.715 700.282 320.679 700.244C320.642 700.207 320.599 700.177 320.551 700.157C320.504 700.136 320.453 700.126 320.401 700.126H310.984C310.932 700.126 310.881 700.136 310.834 700.157C310.786 700.177 310.743 700.207 310.707 700.244C310.67 700.281 310.641 700.326 310.621 700.375C310.602 700.424 310.592 700.476 310.592 700.529V702.563H304.706V700.529C304.706 700.476 304.696 700.424 304.676 700.375C304.656 700.326 304.627 700.281 304.591 700.244C304.554 700.207 304.511 700.177 304.464 700.157C304.416 700.136 304.365 700.126 304.313 700.126H294.896C294.845 700.126 294.794 700.136 294.746 700.157C294.698 700.177 294.655 700.207 294.619 700.244C294.582 700.281 294.553 700.326 294.534 700.375C294.514 700.424 294.504 700.476 294.504 700.529V702.563H288.618V700.529C288.618 700.476 288.608 700.424 288.588 700.375C288.568 700.326 288.54 700.281 288.503 700.244C288.467 700.207 288.423 700.177 288.376 700.157C288.328 700.136 288.277 700.126 288.226 700.126H278.808C278.757 700.126 278.706 700.136 278.658 700.157C278.611 700.177 278.567 700.207 278.531 700.244C278.494 700.281 278.466 700.326 278.446 700.375C278.426 700.424 278.416 700.476 278.416 700.529V702.563H272.53V700.529C272.53 700.476 272.52 700.424 272.5 700.375C272.481 700.326 272.452 700.281 272.415 700.244C272.379 700.207 272.336 700.177 272.288 700.157C272.24 700.136 272.189 700.126 272.138 700.126H262.721C262.617 700.126 262.517 700.168 262.443 700.244C262.37 700.32 262.328 700.422 262.328 700.529V702.563H256.442V700.529C256.442 700.476 256.432 700.424 256.413 700.375C256.393 700.326 256.364 700.282 256.328 700.244C256.291 700.207 256.248 700.177 256.2 700.157C256.153 700.136 256.102 700.126 256.05 700.126H246.633C246.529 700.126 246.429 700.168 246.355 700.244C246.282 700.32 246.24 700.422 246.24 700.529V702.563H228.191C226.954 702.563 225.729 702.813 224.587 703.3C223.444 703.786 222.406 704.499 221.532 705.398C220.657 706.296 219.964 707.363 219.49 708.538C219.017 709.712 218.773 710.97 218.773 712.241V716.617C218.773 719.184 219.766 721.646 221.532 723.461C223.298 725.276 225.693 726.296 228.191 726.296H541.314C543.812 726.296 546.207 725.276 547.973 723.461C549.739 721.646 550.731 719.184 550.731 716.617V712.241C550.731 710.97 550.488 709.712 550.015 708.538C549.541 707.363 548.848 706.296 547.973 705.398C547.099 704.499 546.06 703.786 544.918 703.3C543.775 702.813 542.551 702.563 541.314 702.563Z" fill="#F89B7C"/>
<path d="M387.523 684.136C387.429 684.365 387.324 684.589 387.207 684.807C386.593 685.972 385.725 686.975 384.672 687.738C383.424 688.64 381.96 689.173 380.438 689.278C378.916 689.384 377.396 689.057 376.042 688.335C374.688 687.613 373.554 686.523 372.762 685.183C371.97 683.844 371.551 682.306 371.551 680.739V679.357H372.691C377.123 682.301 382.25 683.953 387.523 684.136Z" fill="#F89B7C"/>
<path d="M403.798 679.762V680.739C403.799 682.64 403.183 684.488 402.048 685.99C400.912 687.492 399.323 688.563 397.529 689.032C395.736 689.502 393.842 689.345 392.145 688.584C390.449 687.824 389.047 686.505 388.162 684.835C388.04 684.611 387.93 684.381 387.832 684.146C388.076 684.153 388.316 684.156 388.559 684.156C393.936 684.162 399.21 682.642 403.798 679.762Z" fill="#F89B7C"/>
<path d="M415.019 576.458C414.769 576.42 414.515 576.396 414.262 576.379C417.142 583.201 417.342 590.904 414.819 597.874C415.072 597.843 415.322 597.802 415.573 597.754C418.015 597.268 420.211 595.906 421.768 593.912C423.325 591.918 424.144 589.421 424.077 586.865C424.011 584.309 423.064 581.86 421.405 579.954C419.746 578.048 417.483 576.809 415.019 576.458Z" fill="#F89B7C"/>
<path d="M362.858 576.379C362.605 576.396 362.351 576.42 362.101 576.458C359.637 576.809 357.374 578.048 355.715 579.954C354.056 581.86 353.109 584.309 353.043 586.865C352.976 589.421 353.795 591.918 355.352 593.912C356.909 595.906 359.105 597.268 361.547 597.754C361.797 597.802 362.048 597.843 362.301 597.874C359.778 590.904 359.978 583.201 362.858 576.379Z" fill="#F89B7C"/>
<path d="M415.018 576.458C412.271 569.713 407.182 564.258 400.739 561.154C394.297 558.049 386.962 557.516 380.159 559.659C373.357 561.802 367.571 566.466 363.928 572.747C360.285 579.028 359.043 586.477 360.445 593.646C361.846 600.815 365.791 607.193 371.512 611.54C377.233 615.887 384.323 617.894 391.403 617.17C398.483 616.446 405.049 613.043 409.824 607.622C414.599 602.202 417.244 595.15 417.243 587.838C417.242 583.93 416.486 580.062 415.018 576.458ZM414.818 597.874C412.379 604.614 407.572 610.171 401.346 613.452C395.119 616.733 387.923 617.5 381.174 615.602C374.425 613.704 368.611 609.278 364.878 603.196C361.145 597.114 359.761 589.816 361.001 582.738C362.24 575.661 366.013 569.317 371.575 564.954C377.138 560.592 384.088 558.527 391.058 559.166C398.027 559.806 404.512 563.103 409.234 568.41C413.957 573.716 416.576 580.647 416.576 587.838C416.575 591.264 415.98 594.662 414.818 597.874Z" fill="#F89B7C"/>
<path d="M403.234 581.154H373.884C372.336 581.154 370.851 581.786 369.756 582.911C368.662 584.036 368.047 585.561 368.047 587.152C368.047 588.743 368.662 590.269 369.756 591.394C370.851 592.519 372.336 593.151 373.884 593.151H403.234C404.782 593.151 406.267 592.519 407.361 591.394C408.456 590.269 409.071 588.743 409.071 587.152C409.071 585.561 408.456 584.036 407.361 582.911C406.267 581.786 404.782 581.154 403.234 581.154Z" fill="#F89B7C"/>
<path d="M414.817 639.061C414.71 638.859 414.6 638.66 414.486 638.464C414.483 638.458 414.48 638.454 414.477 638.447C411.852 633.83 408.105 629.994 403.602 627.315C399.1 624.636 393.997 623.206 388.794 623.166C383.592 623.126 378.468 624.476 373.927 627.085C369.386 629.694 365.582 633.472 362.891 638.048C360.199 642.623 358.711 647.84 358.573 653.185C358.435 658.53 359.652 663.82 362.104 668.535C364.556 673.251 368.159 677.231 372.56 680.083C376.96 682.936 382.007 684.564 387.204 684.807C387.521 684.824 387.841 684.834 388.161 684.834C388.295 684.841 388.425 684.841 388.558 684.841C393.92 684.849 399.185 683.37 403.797 680.56C408.807 677.513 412.853 673.043 415.45 667.689C415.454 667.682 415.457 667.679 415.46 667.672C415.561 667.466 415.657 667.257 415.754 667.044C417.76 662.636 418.721 657.801 418.558 652.937C418.395 648.073 417.113 643.317 414.817 639.061ZM415.104 666.856C415.007 667.068 414.907 667.278 414.803 667.483C412.322 672.552 408.51 676.805 403.797 679.761C399.208 682.641 393.935 684.162 388.558 684.156C388.314 684.156 388.074 684.152 387.831 684.145C387.727 684.145 387.624 684.142 387.521 684.135C382.428 683.952 377.47 682.41 373.133 679.66C368.797 676.91 365.232 673.047 362.789 668.451C360.346 663.856 359.11 658.685 359.201 653.45C359.292 648.214 360.709 643.092 363.31 638.59C365.912 634.087 369.61 630.358 374.039 627.77C378.469 625.182 383.478 623.823 388.574 623.828C393.669 623.833 398.676 625.201 403.101 627.798C407.525 630.395 411.216 634.131 413.81 638.639C413.813 638.646 413.816 638.649 413.819 638.656C413.936 638.852 414.05 639.05 414.156 639.249C416.445 643.44 417.726 648.132 417.89 652.934C418.055 657.737 417.1 662.51 415.104 666.856Z" fill="#F89B7C"/>
<path d="M411.631 639.973C411.046 639.545 410.347 639.314 409.629 639.311H396.512C395.598 639.311 394.722 639.684 394.076 640.348C393.429 641.012 393.066 641.913 393.066 642.852C393.066 643.791 393.429 644.692 394.076 645.356C394.722 646.02 395.598 646.393 396.512 646.393H409.629C409.864 646.393 410.097 646.369 410.326 646.321C410.555 646.27 410.778 646.198 410.994 646.105C411.554 645.856 412.041 645.459 412.403 644.954C412.765 644.449 412.991 643.854 413.055 643.23C413.12 642.606 413.022 641.975 412.772 641.403C412.522 640.831 412.128 640.337 411.631 639.973Z" fill="#F89B7C"/>
<path d="M397.382 644.649C398.348 644.649 399.131 643.845 399.131 642.852C399.131 641.859 398.348 641.054 397.382 641.054C396.416 641.054 395.633 641.859 395.633 642.852C395.633 643.845 396.416 644.649 397.382 644.649Z" fill="#F1F1F1"/>
<path d="M403.066 644.649C404.032 644.649 404.815 643.845 404.815 642.852C404.815 641.859 404.032 641.054 403.066 641.054C402.1 641.054 401.316 641.859 401.316 642.852C401.316 643.845 402.1 644.649 403.066 644.649Z" fill="#F1F1F1"/>
<path d="M408.753 644.649C409.719 644.649 410.502 643.845 410.502 642.852C410.502 641.859 409.719 641.054 408.753 641.054C407.787 641.054 407.004 641.859 407.004 642.852C407.004 643.845 407.787 644.649 408.753 644.649Z" fill="#E86B34"/>
<path d="M474.634 583.605C470.085 586.409 461.98 589.922 453.699 586.312L448.345 583.978L459.073 571.618C450.512 561.918 445.776 549.286 445.789 536.19C445.802 523.094 450.563 510.472 459.144 500.79C467.724 491.107 479.507 485.058 492.194 483.823C504.88 482.588 517.559 486.256 527.756 494.11C537.953 501.965 544.935 513.443 547.341 526.304C549.746 539.165 547.402 552.486 540.766 563.666C534.129 574.846 523.677 583.084 511.449 586.77C499.221 590.457 486.096 589.329 474.634 583.605Z" fill="white"/>
<path d="M474.663 584.271C470.292 586.909 461.966 590.553 453.477 586.852L447.389 584.198L458.308 571.62C451.514 563.766 447.134 554.023 445.718 543.616C444.302 533.209 445.914 522.604 450.352 513.137C454.789 503.67 461.853 495.764 470.654 490.415C479.455 485.066 489.599 482.513 499.809 483.077C510.019 483.641 519.838 487.298 528.03 493.586C536.222 499.874 542.421 508.513 545.844 518.414C549.268 528.316 549.765 539.037 547.271 549.228C544.778 559.419 539.406 568.624 531.832 575.683C524.226 582.816 514.716 587.445 504.528 588.976C494.339 590.506 483.938 588.868 474.663 584.271ZM534.556 501.264C530.087 496.197 524.69 492.085 518.674 489.162C512.658 486.239 506.141 484.562 499.494 484.228C492.848 483.894 486.202 484.908 479.937 487.214C473.673 489.52 467.911 493.071 462.982 497.666C458.053 502.26 454.053 507.807 451.21 513.991C448.367 520.174 446.737 526.872 446.414 533.703C446.09 540.534 447.079 547.363 449.325 553.801C451.57 560.239 455.027 566.159 459.498 571.224L459.844 571.615L449.305 583.757L453.924 585.771C462.122 589.345 470.235 585.632 474.341 583.101L474.607 582.937L474.885 583.076C485.471 588.362 497.516 589.696 508.954 586.849C520.392 584.002 530.509 577.151 537.567 567.473C544.626 557.795 548.186 545.894 547.637 533.813C547.087 521.731 542.462 510.223 534.556 501.264Z" fill="#E86B34"/>
<path opacity="0.1" d="M540.28 535.916C540.279 523.806 535.867 512.135 527.911 503.202C519.956 494.269 509.034 488.72 497.297 487.65C498.67 487.526 500.06 487.459 501.464 487.459C513.964 487.467 525.95 492.575 534.786 501.662C543.622 510.748 548.586 523.069 548.586 535.916C548.586 548.762 543.622 561.083 534.786 570.169C525.95 579.256 513.964 584.364 501.464 584.372C500.062 584.372 498.675 584.304 497.303 584.181C509.039 583.109 519.959 577.56 527.913 568.627C535.867 559.694 540.279 548.024 540.28 535.916Z" fill="black"/>
<path d="M503.68 526.253H469.988V529.468H503.68V526.253Z" fill="#E86B34"/>
<path d="M528.71 537.376H469.988V540.591H528.71V537.376Z" fill="#E86B34"/>
<path d="M528.652 548.499H469.988V551.714H528.652V548.499Z" fill="#E86B34"/>
<path d="M272.091 761.143H140.49C140.398 761.143 140.31 761.187 140.246 761.264C140.181 761.342 140.145 761.447 140.145 761.557C140.145 761.667 140.181 761.772 140.246 761.85C140.31 761.927 140.398 761.971 140.49 761.971H272.091C272.183 761.971 272.27 761.927 272.335 761.85C272.4 761.772 272.436 761.667 272.436 761.557C272.436 761.447 272.4 761.342 272.335 761.264C272.27 761.187 272.183 761.143 272.091 761.143Z" fill="#CBCBCB"/>
<path d="M188.248 527.211C187.776 525.01 186.243 523.186 184.476 521.851C181.564 519.649 177.993 518.567 174.384 518.792C170.775 519.018 167.358 520.537 164.727 523.085C163.257 524.42 162.197 526.165 161.677 528.109C161.429 529.081 161.416 530.1 161.638 531.078C161.861 532.056 162.313 532.963 162.955 533.72L163.197 533.876C162.977 532.919 163.701 531.963 164.564 531.541C165.463 531.202 166.401 530.986 167.354 530.898C168.796 530.618 170.163 530.023 171.362 529.154C172.562 528.284 173.565 527.16 174.305 525.857C174.854 527.46 175.73 528.924 176.875 530.15C178.02 531.377 179.407 532.337 180.943 532.966C182.544 533.609 186.942 534.494 188.467 533.677C190.411 532.635 188.72 529.412 188.248 527.211Z" fill="#2F2E41"/>
</svg>
