<svg width="60" height="60" viewBox="0 0 60 60" fill="none" xmlns="http://www.w3.org/2000/svg">
<circle cx="30" cy="30" r="30" fill="#FF8B4B"/>
<path d="M30 37.5C30.7956 37.5 31.5587 37.8161 32.1213 38.3787C32.6839 38.9413 33 39.7044 33 40.5C33 41.2956 32.6839 42.0587 32.1213 42.6213C31.5587 43.1839 30.7956 43.5 30 43.5C29.2044 43.5 28.4413 43.1839 27.8787 42.6213C27.3161 42.0587 27 41.2956 27 40.5C27 39.7044 27.3161 38.9413 27.8787 38.3787C28.4413 37.8161 29.2044 37.5 30 37.5ZM30 27C30.7956 27 31.5587 27.3161 32.1213 27.8787C32.6839 28.4413 33 29.2044 33 30C33 30.7956 32.6839 31.5587 32.1213 32.1213C31.5587 32.6839 30.7956 33 30 33C29.2044 33 28.4413 32.6839 27.8787 32.1213C27.3161 31.5587 27 30.7956 27 30C27 29.2044 27.3161 28.4413 27.8787 27.8787C28.4413 27.3161 29.2044 27 30 27ZM30 16.5C30.7956 16.5 31.5587 16.8161 32.1213 17.3787C32.6839 17.9413 33 18.7044 33 19.5C33 20.2956 32.6839 21.0587 32.1213 21.6213C31.5587 22.1839 30.7956 22.5 30 22.5C29.2044 22.5 28.4413 22.1839 27.8787 21.6213C27.3161 21.0587 27 20.2956 27 19.5C27 18.7044 27.3161 17.9413 27.8787 17.3787C28.4413 16.8161 29.2044 16.5 30 16.5Z" fill="black"/>
</svg>
