<svg width="274" height="274" viewBox="0 0 274 274" fill="none" xmlns="http://www.w3.org/2000/svg">
<path d="M137.002 137.187C124.485 137.187 113.769 132.73 104.855 123.816C95.9406 114.902 91.4836 104.186 91.4836 91.6681C91.4836 79.1505 95.9406 68.4346 104.855 59.5205C113.769 50.6065 124.485 46.1494 137.002 46.1494C149.52 46.1494 160.236 50.6065 169.15 59.5205C178.064 68.4346 182.521 79.1505 182.521 91.6681C182.521 104.186 178.064 114.902 169.15 123.816C160.236 132.73 149.52 137.187 137.002 137.187ZM68.7242 228.224C62.4654 228.224 57.1056 225.994 52.6447 221.533C48.1839 217.072 45.9573 211.716 45.9649 205.465V196.361C45.9649 189.913 47.6263 183.984 50.9492 178.575C54.272 173.166 58.6798 169.042 64.1723 166.205C75.9314 160.326 87.88 155.914 100.018 152.97C112.157 150.027 124.485 148.559 137.002 148.567C149.52 148.567 161.848 150.038 173.986 152.982C186.125 155.925 198.073 160.333 209.832 166.205C215.332 169.05 219.744 173.177 223.067 178.586C226.39 183.995 228.047 189.92 228.04 196.361V205.465C228.04 211.724 225.809 217.084 221.348 221.544C216.888 226.005 211.532 228.232 205.28 228.224H68.7242Z" fill="white"/>
</svg>
