<svg width="576" height="669" viewBox="0 0 576 669" fill="none" xmlns="http://www.w3.org/2000/svg">
<g clip-path="url(#clip0_168_738)">
<path d="M575.455 593.248H421V591.248C461.434 591.248 500.211 575.185 528.802 546.595C557.393 518.004 573.455 479.226 573.455 438.793V331H575.455V593.248Z" fill="#F89B7C"/>
<path d="M154.016 203.647C149.91 205.211 145.717 206.537 141.458 207.618C135.833 208.989 132.656 209.625 127.227 207.518C127.036 207.444 126.854 207.371 126.682 207.299C116.391 202.923 107.593 195.65 101.361 186.364C95.1279 177.079 91.729 166.182 91.5776 155C91.5504 154.616 91.5504 154.213 91.5504 153.819C91.5451 151.924 91.6357 150.03 91.8219 148.144C92.0598 145.575 92.4708 143.025 93.052 140.511L92.9977 140.501C88.6017 136.006 86.9103 129.848 87.4711 123.661C87.8553 119.467 89.1865 115.414 91.3643 111.809C93.5422 108.204 96.51 105.14 100.044 102.848C105.582 99.366 111.827 97.1617 118.325 96.3956C120.069 96.1944 121.824 96.0926 123.58 96.0907H140.078C143.486 95.2929 146.948 94.7472 150.435 94.4579H150.462C183.668 91.7037 209.854 113.717 207.411 140.501C207.393 140.531 207.366 140.56 207.348 140.59C206.643 141.74 206.019 142.832 205.467 143.875C204.933 144.849 204.481 145.783 204.092 146.668C201.062 153.514 215.462 259.73 210.297 261.343C207.357 262.257 195.508 183.22 197.633 198.249C200.311 217.105 169.313 197.992 154.016 203.647Z" fill="#2F2E41"/>
<path d="M204.038 395.654L250.067 493.714L73.0039 475.781L109.965 381.645L204.038 395.654Z" fill="#FFB6B6"/>
<path d="M296.441 592.26C265.65 602.509 233.203 606.855 200.801 605.07L186.711 582.22C186.711 582.22 186.121 590.73 185.241 603.74C169.816 601.953 154.593 598.725 139.771 594.1C111.661 585.31 85.3106 571.69 58.6006 559.13C53.1906 526.88 51.1605 477.15 81.0705 448.2L242.061 477.7C242.061 477.7 267.891 497.02 260.981 503.94C254.071 510.85 253.001 509.78 257.541 514.32C262.081 518.86 271.891 524.93 271.991 528.9C272.031 530.45 283.041 558.56 296.441 592.26Z" fill="#2F2E41"/>
<path d="M175.924 206.167L137.03 208.881L111.891 233.173L103.086 234.744C95.1725 236.155 88.0515 240.421 83.0737 246.733C78.0959 253.046 75.6075 260.965 76.0803 268.99C77.8913 299.672 81.9461 345.517 90.4211 360.391C103.562 383.455 114.417 376.218 103.562 383.455C92.7079 390.691 85.4206 385.005 90.4211 396.441C95.4215 407.877 83.6626 422.545 83.6626 422.545L78.9816 427.226L83.9464 429.261L242.143 449.846C242.143 449.846 228.464 388.344 237.019 373.236C245.573 358.128 266.315 312.459 247.803 294.59L229.703 230.896L198.57 221.713L175.924 206.167Z" fill="#26AF8C"/>
<path d="M411.373 458.588C408.77 458.506 406.216 457.859 403.887 456.692C401.559 455.526 399.512 453.867 397.888 451.831C396.263 449.796 395.101 447.432 394.48 444.902C393.859 442.373 393.795 439.739 394.292 437.183L320.086 386.927L328.94 362.984L416.64 423.318C420.881 424.475 424.55 427.148 426.951 430.829C429.353 434.511 430.321 438.945 429.672 443.293C429.023 447.64 426.801 451.599 423.429 454.418C420.056 457.237 415.766 458.721 411.373 458.588Z" fill="#FFB6B6"/>
<path d="M201.779 227.887L190.996 232.157L248.518 344.5L367.597 425.669L384.762 396.658L294.117 318.363L257.828 248.765C252.72 238.97 244.165 231.415 233.814 227.559C223.462 223.704 212.049 223.82 201.779 227.887Z" fill="#26AF8C"/>
<path d="M154.454 196.286C176.024 196.286 193.51 178.8 193.51 157.231C193.51 135.661 176.024 118.175 154.454 118.175C132.884 118.175 115.398 135.661 115.398 157.231C115.398 178.8 132.884 196.286 154.454 196.286Z" fill="#FFB6B6"/>
<path d="M188.418 140.715C187.767 141.058 187.125 141.375 186.473 141.691C185.795 142.017 185.117 142.343 184.429 142.65C171.359 148.575 160.712 149.235 154.254 140.715C154.077 136.232 153.068 131.821 151.278 127.707C151.594 132.305 150.383 136.877 147.832 140.715H134.825C121.429 149.606 114.554 157.774 123.853 186.963C124.459 188.881 128.611 257.01 129.796 262.247C109.516 254.468 92.0225 171.876 91.5793 150.113C91.5522 149.76 91.5522 149.389 91.5522 149.027C91.5469 147.284 91.6375 145.541 91.8236 143.808C92.0622 141.442 92.4734 139.096 93.0537 136.789L92.9994 136.78C90.9361 134.807 89.362 132.38 88.4025 129.692C87.443 127.003 87.1246 124.128 87.4728 121.294C90.8747 116.84 95.0847 113.066 99.8829 110.169C104.246 108.056 108.794 106.348 113.469 105.067C113.586 105.04 113.686 105.013 113.804 104.986C115.233 104.597 116.698 104.244 118.163 103.936C121.183 103.303 124.236 102.841 127.308 102.553C127.534 102.544 127.751 102.525 127.95 102.525C129.179 102.526 130.385 102.857 131.442 103.484C131.451 103.484 131.451 103.493 131.469 103.493C132.484 104.1 133.327 104.958 133.914 105.985C134.502 107.011 134.816 108.172 134.825 109.355H149.315C149.849 109.355 150.383 109.373 150.916 109.4C171.096 110.205 187.315 118.834 188.355 138.67C188.4 139.358 188.418 140.027 188.418 140.715Z" fill="#2F2E41"/>
<path d="M102.746 142.285C116.956 142.285 128.476 130.765 128.476 116.554C128.476 102.344 116.956 90.8242 102.746 90.8242C88.5354 90.8242 77.0156 102.344 77.0156 116.554C77.0156 130.765 88.5354 142.285 102.746 142.285Z" fill="#2F2E41"/>
<path d="M138.071 104.654C135.148 118.561 120.726 126.878 106.929 123.476C100.304 121.842 94.5985 117.643 91.0688 111.803C87.5391 105.962 86.474 98.9591 88.1078 92.3335C91.5101 78.5364 108.255 82.5139 119.25 73.512C134.805 60.7774 142.014 85.9002 138.071 104.654Z" fill="#2F2E41"/>
<path d="M80.9022 491.756C102.832 402.329 146.282 325.464 218.243 265.242C221.028 260.661 225.517 257.371 230.724 256.095C235.931 254.818 241.432 255.66 246.02 258.434L417.089 362.157C421.67 364.942 424.96 369.431 426.236 374.638C427.512 379.846 426.671 385.347 423.896 389.934C396.43 481.697 355.292 561.322 286.556 616.449C283.771 621.03 279.282 624.32 274.075 625.596C268.867 626.872 263.366 626.031 258.778 623.256L87.71 519.534C83.1285 516.749 79.8388 512.26 78.5625 507.053C77.2862 501.845 78.1276 496.344 80.9022 491.756Z" fill="#F89B7C"/>
<path opacity="0.2" d="M111.308 521.895C106.726 519.11 103.437 514.621 102.16 509.414C100.884 504.206 101.726 498.705 104.5 494.118C126.43 404.69 169.881 327.826 241.841 267.603C243.684 264.604 246.287 262.145 249.386 260.476L246.02 258.434C241.432 255.66 235.931 254.818 230.724 256.095C225.517 257.371 221.028 260.66 218.243 265.242C146.282 325.464 102.832 402.328 80.9023 491.756C78.1277 496.344 77.2862 501.845 78.5625 507.052C79.8387 512.26 83.1284 516.748 87.7099 519.533L258.778 623.256C261.823 625.088 265.298 626.083 268.851 626.139C272.404 626.195 275.909 625.311 279.01 623.576L111.308 521.895Z" fill="black"/>
<path d="M311.928 471.931L197.099 402.743C195.274 401.64 193.962 399.859 193.45 397.79C192.938 395.72 193.269 393.533 194.369 391.707C195.469 389.881 197.249 388.567 199.317 388.052C201.386 387.538 203.574 387.865 205.401 388.963L320.23 458.152C322.05 459.256 323.358 461.037 323.867 463.104C324.376 465.172 324.045 467.356 322.946 469.18C321.848 471.003 320.071 472.317 318.005 472.832C315.94 473.348 313.754 473.024 311.928 471.931Z" fill="white"/>
<path d="M245.13 380.18L219.867 364.958C218.037 363.863 216.716 362.086 216.196 360.017C215.676 357.948 215.999 355.757 217.094 353.926C218.189 352.095 219.967 350.775 222.036 350.254C224.105 349.734 226.296 350.057 228.127 351.153L228.17 351.179L253.432 366.401C255.253 367.505 256.561 369.286 257.07 371.353C257.58 373.421 257.249 375.606 256.15 377.429C255.051 379.253 253.274 380.567 251.208 381.082C249.143 381.598 246.957 381.273 245.13 380.18Z" fill="white"/>
<path d="M293.68 502.22L178.851 433.031C177.025 431.931 175.71 430.151 175.195 428.082C174.68 426.013 175.008 423.825 176.106 421.997C177.204 420.17 178.983 418.853 181.051 418.337C183.12 417.82 185.309 418.145 187.137 419.242L187.154 419.252L301.983 488.44C303.803 489.545 305.11 491.326 305.619 493.393C306.129 495.46 305.798 497.645 304.699 499.468C303.6 501.292 301.823 502.605 299.758 503.121C297.693 503.637 295.507 503.313 293.68 502.22Z" fill="white"/>
<path d="M326.512 341.474C345.035 341.474 360.051 326.458 360.051 307.935C360.051 289.412 345.035 274.396 326.512 274.396C307.989 274.396 292.973 289.412 292.973 307.935C292.973 326.458 307.989 341.474 326.512 341.474Z" fill="#3F3D56"/>
<path d="M268.697 667.318C308.287 667.318 340.382 635.224 340.382 595.633C340.382 556.043 308.287 523.948 268.697 523.948C229.106 523.948 197.012 556.043 197.012 595.633C197.012 635.224 229.106 667.318 268.697 667.318Z" fill="white"/>
<path d="M268.697 668.318C254.321 668.318 240.268 664.055 228.315 656.069C216.362 648.082 207.046 636.73 201.545 623.449C196.043 610.167 194.604 595.553 197.408 581.453C200.213 567.354 207.135 554.403 217.301 544.237C227.466 534.072 240.417 527.15 254.516 524.345C268.616 521.54 283.23 522.98 296.512 528.481C309.793 533.982 321.145 543.298 329.132 555.251C337.119 567.204 341.382 581.257 341.382 595.633C341.36 614.903 333.695 633.379 320.069 647.005C306.443 660.632 287.967 668.297 268.697 668.318ZM268.697 524.948C254.717 524.948 241.05 529.094 229.426 536.861C217.802 544.628 208.742 555.667 203.392 568.583C198.042 581.499 196.643 595.712 199.37 609.423C202.097 623.135 208.83 635.73 218.715 645.615C228.601 655.501 241.196 662.233 254.907 664.96C268.619 667.688 282.831 666.288 295.747 660.938C308.663 655.588 319.703 646.528 327.47 634.903C335.236 623.279 339.382 609.613 339.382 595.633C339.361 576.893 331.907 558.926 318.655 545.675C305.404 532.423 287.437 524.969 268.697 524.948Z" fill="#3F3D56"/>
<path d="M258.917 632.942C257.679 632.942 256.458 632.654 255.351 632.1C254.244 631.546 253.281 630.742 252.538 629.752L232.982 603.676C232.352 602.838 231.894 601.885 231.634 600.87C231.373 599.855 231.315 598.799 231.462 597.762C231.61 596.724 231.961 595.726 232.495 594.825C233.028 593.923 233.734 593.135 234.573 592.507C235.411 591.878 236.365 591.421 237.38 591.161C238.395 590.901 239.451 590.844 240.488 590.993C241.525 591.142 242.523 591.493 243.424 592.028C244.325 592.562 245.112 593.269 245.74 594.107L258.535 611.166L291.396 561.874C291.977 561.003 292.724 560.254 293.594 559.672C294.464 559.089 295.44 558.683 296.467 558.478C297.494 558.273 298.551 558.272 299.579 558.475C300.606 558.678 301.583 559.082 302.454 559.663C303.326 560.243 304.074 560.99 304.657 561.86C305.239 562.73 305.645 563.707 305.85 564.734C306.056 565.76 306.057 566.818 305.854 567.845C305.65 568.872 305.247 569.849 304.666 570.721L265.552 629.391C264.845 630.452 263.893 631.328 262.777 631.945C261.661 632.563 260.414 632.904 259.139 632.939C259.065 632.941 258.991 632.942 258.917 632.942Z" fill="#26AF8C"/>
<path d="M500.205 232.366C503.054 232.122 505.225 230.318 505.056 228.337C504.887 226.355 502.44 224.946 499.591 225.19C496.743 225.433 494.571 227.237 494.74 229.219C494.91 231.201 497.356 232.61 500.205 232.366Z" fill="white"/>
<path d="M532.256 221.494C535.104 221.25 537.276 219.446 537.107 217.465C536.937 215.483 534.491 214.074 531.642 214.318C528.794 214.561 526.622 216.365 526.791 218.347C526.961 220.328 529.407 221.737 532.256 221.494Z" fill="#3F3D56"/>
<path d="M485.014 207.914C487.862 207.67 490.034 205.866 489.865 203.885C489.695 201.903 487.249 200.494 484.4 200.738C481.551 200.981 479.38 202.785 479.549 204.767C479.718 206.748 482.165 208.157 485.014 207.914Z" fill="#FF6584"/>
<path d="M471.568 200.034C472.794 199.757 473.465 198.104 473.067 196.341C472.669 194.579 471.352 193.375 470.126 193.652C468.9 193.929 468.229 195.582 468.627 197.345C469.026 199.107 470.342 200.311 471.568 200.034Z" fill="#FFD037"/>
<path d="M461.998 180.906C463.224 180.629 463.895 178.976 463.497 177.213C463.099 175.451 461.782 174.247 460.556 174.524C459.33 174.801 458.659 176.454 459.057 178.217C459.455 179.979 460.772 181.183 461.998 180.906Z" fill="#3F3D56"/>
<path d="M507.92 207.769C509.146 207.492 509.817 205.839 509.419 204.077C509.021 202.314 507.704 201.11 506.478 201.387C505.252 201.664 504.581 203.317 504.979 205.08C505.377 206.842 506.694 208.046 507.92 207.769Z" fill="#FFD037"/>
<path d="M493.924 219.39C495.15 219.113 495.821 217.46 495.423 215.698C495.024 213.935 493.708 212.731 492.482 213.008C491.256 213.285 490.585 214.938 490.983 216.701C491.381 218.463 492.698 219.668 493.924 219.39Z" fill="#FF6584"/>
<path d="M519.408 228.855C520.634 228.578 521.305 226.925 520.907 225.163C520.509 223.4 519.192 222.196 517.966 222.473C516.74 222.75 516.069 224.403 516.467 226.166C516.865 227.928 518.182 229.132 519.408 228.855Z" fill="#3F3D56"/>
<path d="M367.882 84.1932C368.37 82.2653 366.52 80.1331 363.748 79.4307C360.977 78.7284 358.334 79.7219 357.846 81.6498C357.357 83.5777 359.208 85.71 361.979 86.4123C364.75 87.1146 367.393 86.1211 367.882 84.1932Z" fill="white"/>
<path d="M334.038 83.9744C334.526 82.0465 332.676 79.9142 329.904 79.2119C327.133 78.5096 324.49 79.5031 324.002 81.431C323.513 83.3589 325.364 85.4912 328.135 86.1935C330.907 86.8959 333.549 85.9023 334.038 83.9744Z" fill="#3F3D56"/>
<path d="M374.233 112.271C374.722 110.343 372.871 108.211 370.1 107.509C367.328 106.807 364.686 107.8 364.197 109.728C363.709 111.656 365.559 113.788 368.33 114.49C371.102 115.193 373.745 114.199 374.233 112.271Z" fill="#FF6584"/>
<path d="M382.121 122.86C382.322 121.064 381.472 119.495 380.223 119.355C378.974 119.216 377.798 120.558 377.598 122.354C377.397 124.15 378.247 125.719 379.496 125.858C380.745 125.998 381.921 124.655 382.121 122.86Z" fill="#FFD037"/>
<path d="M384.903 144.067C385.103 142.271 384.253 140.702 383.004 140.562C381.755 140.423 380.58 141.765 380.379 143.561C380.178 145.357 381.028 146.926 382.277 147.065C383.527 147.205 384.702 145.862 384.903 144.067Z" fill="#3F3D56"/>
<path d="M350.305 103.651C350.506 101.855 349.656 100.286 348.406 100.146C347.157 100.007 345.982 101.349 345.781 103.145C345.581 104.941 346.431 106.51 347.68 106.649C348.929 106.789 350.104 105.446 350.305 103.651Z" fill="#FFD037"/>
<path d="M367.336 97.2521C367.537 95.4565 366.687 93.8876 365.438 93.748C364.188 93.6085 363.013 94.951 362.813 96.7467C362.612 98.5424 363.462 100.111 364.711 100.251C365.96 100.39 367.136 99.0478 367.336 97.2521Z" fill="#FF6584"/>
<path d="M346.352 79.966C346.552 78.1703 345.702 76.6015 344.453 76.4619C343.204 76.3223 342.029 77.6649 341.828 79.4605C341.627 81.2562 342.478 82.8251 343.727 82.9646C344.976 83.1042 346.151 81.7617 346.352 79.966Z" fill="#3F3D56"/>
<path d="M2 262.247H0V0H154.455V2C114.022 2 75.2439 18.0622 46.653 46.653C18.0622 75.2439 2 114.021 2 154.455V262.247Z" fill="#F89B7C"/>
<path d="M91.5703 492.703C89.0142 491.656 86.7162 490.066 84.8351 488.043C82.954 486.02 81.5347 483.613 80.6755 480.988C79.8163 478.363 79.5375 475.582 79.8586 472.838C80.1797 470.095 81.0929 467.454 82.5351 465.098L27.4297 387.637L45.1079 367.127L109.885 459.607C113.67 462.329 116.325 466.346 117.346 470.895C118.368 475.444 117.685 480.21 115.428 484.29C113.17 488.369 109.495 491.479 105.098 493.03C100.701 494.581 95.8875 494.464 91.5703 492.703Z" fill="#FFB6B6"/>
<path d="M92.8363 247.232C90.0484 245.592 86.7672 244.999 83.5816 245.56C80.396 246.12 77.5146 247.798 75.4546 250.292L1 354.421L70 452.421L97 423.421L55 357.421L110.818 304.275C115.405 294.227 116.106 282.835 112.785 272.3C109.464 261.764 102.357 252.834 92.8363 247.232Z" fill="#26AF8C"/>
</g>
<defs>
<clipPath id="clip0_168_738">
<rect width="575.455" height="668.319" fill="white"/>
</clipPath>
</defs>
</svg>
