<svg width="36" height="36" viewBox="0 0 36 36" fill="none" xmlns="http://www.w3.org/2000/svg">
<path d="M18 25.5C18.7956 25.5 19.5587 25.8161 20.1213 26.3787C20.6839 26.9413 21 27.7044 21 28.5C21 29.2956 20.6839 30.0587 20.1213 30.6213C19.5587 31.1839 18.7956 31.5 18 31.5C17.2044 31.5 16.4413 31.1839 15.8787 30.6213C15.3161 30.0587 15 29.2956 15 28.5C15 27.7044 15.3161 26.9413 15.8787 26.3787C16.4413 25.8161 17.2044 25.5 18 25.5ZM18 15C18.7956 15 19.5587 15.3161 20.1213 15.8787C20.6839 16.4413 21 17.2044 21 18C21 18.7956 20.6839 19.5587 20.1213 20.1213C19.5587 20.6839 18.7956 21 18 21C17.2044 21 16.4413 20.6839 15.8787 20.1213C15.3161 19.5587 15 18.7956 15 18C15 17.2044 15.3161 16.4413 15.8787 15.8787C16.4413 15.3161 17.2044 15 18 15ZM18 4.5C18.7956 4.5 19.5587 4.81607 20.1213 5.37868C20.6839 5.94129 21 6.70435 21 7.5C21 8.29565 20.6839 9.05871 20.1213 9.62132C19.5587 10.1839 18.7956 10.5 18 10.5C17.2044 10.5 16.4413 10.1839 15.8787 9.62132C15.3161 9.05871 15 8.29565 15 7.5C15 6.70435 15.3161 5.94129 15.8787 5.37868C16.4413 4.81607 17.2044 4.5 18 4.5Z" fill="black"/>
</svg>
