<svg width="1364" height="1186" viewBox="0 0 1364 1186" fill="none" xmlns="http://www.w3.org/2000/svg">
<ellipse cx="724.5" cy="593" rx="639.5" ry="593" fill="#FFC1A3"/>
<path d="M198.041 63.8526C234.098 70.9386 265.556 92.0099 290.216 119.253C314.569 146.158 331.461 179.346 335.253 215.437C338.996 251.073 328.331 286.085 311.037 317.467C293.726 348.879 269.611 376.227 237.663 392.526C204.931 409.226 167.265 417.15 131.41 409.11C96.1594 401.204 67.7998 376.621 44.3201 349.167C21.7059 322.725 5.58955 291.424 1.23915 256.904C-3.11713 222.337 4.21371 187.72 20.0636 156.694C36.3336 124.845 59.7982 96.7441 91.5076 80.2029C124.16 63.17 161.904 56.7509 198.041 63.8526Z" fill="#F89B7C"/>
<path d="M168.002 236.187C155.485 236.187 144.769 231.73 135.855 222.816C126.941 213.902 122.484 203.186 122.484 190.668C122.484 178.15 126.941 167.435 135.855 158.521C144.769 149.606 155.485 145.149 168.002 145.149C180.52 145.149 191.236 149.606 200.15 158.521C209.064 167.435 213.521 178.15 213.521 190.668C213.521 203.186 209.064 213.902 200.15 222.816C191.236 231.73 180.52 236.187 168.002 236.187ZM99.7242 327.224C93.4654 327.224 88.1056 324.994 83.6447 320.533C79.1839 316.072 76.9573 310.716 76.9649 304.465V295.361C76.9649 288.913 78.6263 282.984 81.9492 277.575C85.272 272.166 89.6798 268.042 95.1723 265.205C106.931 259.326 118.88 254.914 131.018 251.97C143.157 249.027 155.485 247.559 168.002 247.567C180.52 247.567 192.848 249.038 204.986 251.982C217.125 254.925 229.073 259.333 240.832 265.205C246.332 268.05 250.744 272.177 254.067 277.586C257.39 282.995 259.047 288.92 259.04 295.361V304.465C259.04 310.724 256.809 316.084 252.348 320.544C247.888 325.005 242.532 327.232 236.28 327.224H99.7242Z" fill="white"/>
</svg>
